<svg id="Layer_1" data-name="Layer 1" xmlns="http://www.w3.org/2000/svg" viewBox="0 0 281.39 384" height="500" width="500">
  <defs>
    <style>
      .cls-1 {
        fill: #edf4fc;
      }

      .cls-2 {
        fill: #0075f6;
      }

      .cls-3 {
        fill: #f5c84c;
      }

      .cls-4 {
        fill: #fc657e;
      }

      .cls-5 {
        fill: #70d6f9;
      }

      .cls-6 {
        fill: #87d147;
      }

      .cls-7 {
        font-size: 80px;
        fill: #f3f9ff;
        font-family: Poppins-Medium, Poppins;
        font-weight: 500;
      }
    </style>
  </defs>
  <title>logs</title>
  <g>
    <path class="cls-1" d="M229.76,439a7.27,7.27,0,0,1-7.27-7.27v-75.3a7.27,7.27,0,0,1,7.27-7.27H404.41V266.59a18.57,18.57,0,0,0-18.51-18.51H235.35l-75.6,75.6V562.19a18.57,18.57,0,0,0,18.51,18.51H385.9a18.57,18.57,0,0,0,18.51-18.51V439Zm0,0" transform="translate(-156 -229.89)"/>
    <path class="cls-2" d="M414.14,349.2H229.76a7.27,7.27,0,0,0-7.27,7.27v75.3a7.27,7.27,0,0,0,7.27,7.27H414.14a7.26,7.26,0,0,0,7.27-7.27v-75.3a7.26,7.26,0,0,0-7.27-7.27Zm0,0" transform="translate(-156 -229.89)"/>
    <path class="cls-2" d="M159.75,323.68h57.09a18.57,18.57,0,0,0,18.51-18.51V248.08Zm0,0" transform="translate(-156 -229.89)"/>
    <path class="cls-3" d="M184.48,259.22a15.35,15.35,0,0,0-12.31,12.06.27.27,0,0,1-.54,0,15.35,15.35,0,0,0-12.31-12.06.27.27,0,0,1,0-.54,15.37,15.37,0,0,0,12.31-12.06.27.27,0,0,1,.54,0,15.37,15.37,0,0,0,12.31,12.06.27.27,0,0,1,0,.54Zm0,0" transform="translate(-156 -229.89)"/>
    <path class="cls-3" d="M437.23,468.39a10.76,10.76,0,0,0-8.64,8.46.19.19,0,0,1-.38,0,10.76,10.76,0,0,0-8.64-8.46.19.19,0,0,1,0-.38,10.76,10.76,0,0,0,8.64-8.46.19.19,0,0,1,.38,0,10.76,10.76,0,0,0,8.64,8.46.19.19,0,0,1,0,.38Zm0,0" transform="translate(-156 -229.89)"/>
    <path class="cls-4" d="M224.14,235a5.07,5.07,0,1,1-5.06-5.07,5.06,5.06,0,0,1,5.06,5.07Zm0,0" transform="translate(-156 -229.89)"/>
    <path class="cls-4" d="M429.64,505a5.06,5.06,0,1,1-5.06-5.07,5.06,5.06,0,0,1,5.06,5.07Zm0,0" transform="translate(-156 -229.89)"/>
    <path class="cls-5" d="M288.79,600h-2.74v-2.74a3.71,3.71,0,1,0-7.41,0V600H275.9a3.71,3.71,0,1,0,0,7.41h2.74v2.74a3.71,3.71,0,1,0,7.41,0v-2.74h2.74a3.71,3.71,0,1,0,0-7.41Zm0,0" transform="translate(-156 -229.89)"/>
    <path class="cls-6" d="M334.22,601.33a5.07,5.07,0,1,1-5.06-5.06,5.07,5.07,0,0,1,5.06,5.06Zm0,0" transform="translate(-156 -229.89)"/>
    <path d="M414.14,442.79H229.76a11,11,0,0,1-11-11v-75.3a11,11,0,0,1,11-11H414.14a11,11,0,0,1,11,11v75.3a11,11,0,0,1-11,11ZM229.76,353a3.53,3.53,0,0,0-3.52,3.52v75.3a3.53,3.53,0,0,0,3.52,3.52H414.14a3.52,3.52,0,0,0,3.52-3.52v-75.3a3.53,3.53,0,0,0-3.52-3.53Zm0,0" transform="translate(-156 -229.89)"/>
    <path d="M385.9,584.45H178.26A22.28,22.28,0,0,1,156,562.19V323.68a3.7,3.7,0,0,1,1.1-2.65l75.6-75.6a3.7,3.7,0,0,1,2.65-1.1H385.9a22.28,22.28,0,0,1,22.26,22.26v81.75a3.75,3.75,0,0,1-7.5,0V266.59a14.78,14.78,0,0,0-14.76-14.76h-149l-73.4,73.4v237A14.78,14.78,0,0,0,178.26,577H385.9a14.78,14.78,0,0,0,14.76-14.76V439.94a3.75,3.75,0,0,1,7.5,0V562.19a22.28,22.28,0,0,1-22.26,22.26Zm0,0" transform="translate(-156 -229.89)"/>
    <path d="M216.84,327.43H161.26a3.75,3.75,0,0,1,0-7.5h55.58a14.78,14.78,0,0,0,14.76-14.76V249.11a3.75,3.75,0,0,1,7.5,0v56.06a22.29,22.29,0,0,1-22.26,22.26Zm0,0" transform="translate(-156 -229.89)"/>
    <path d="M369.75,467.5H238.86a3.75,3.75,0,0,1,0-7.5H369.75a3.75,3.75,0,0,1,0,7.5Zm0,0" transform="translate(-156 -229.89)"/>
    <path d="M225,467.5H195.51a3.75,3.75,0,0,1,0-7.5H225a3.75,3.75,0,0,1,0,7.5Zm0,0" transform="translate(-156 -229.89)"/>
    <path d="M369.75,485.32H292.17a3.75,3.75,0,0,1,0-7.5h77.58a3.75,3.75,0,0,1,0,7.5Zm0,0" transform="translate(-156 -229.89)"/>
    <path d="M277.73,485.32H195.51a3.75,3.75,0,1,1,0-7.5h82.22a3.75,3.75,0,0,1,0,7.5Zm0,0" transform="translate(-156 -229.89)"/>
    <path d="M369.75,503.14H346a3.75,3.75,0,0,1,0-7.5h23.72a3.75,3.75,0,0,1,0,7.5Zm0,0" transform="translate(-156 -229.89)"/>
    <path d="M332,503.14H195.51a3.75,3.75,0,0,1,0-7.5H332a3.75,3.75,0,0,1,0,7.5Zm0,0" transform="translate(-156 -229.89)"/>
    <path d="M369.75,521H259a3.75,3.75,0,0,1,0-7.5H369.75a3.75,3.75,0,0,1,0,7.5Zm0,0" transform="translate(-156 -229.89)"/>
    <path d="M244.51,521h-49a3.75,3.75,0,0,1,0-7.5h49a3.75,3.75,0,0,1,0,7.5Zm0,0" transform="translate(-156 -229.89)"/>
    <path d="M369.75,555.82H259a3.75,3.75,0,0,1,0-7.5H369.75a3.75,3.75,0,0,1,0,7.5Zm0,0" transform="translate(-156 -229.89)"/>
    <path d="M244.51,555.82h-49a3.75,3.75,0,0,1,0-7.5h49a3.75,3.75,0,0,1,0,7.5Zm0,0" transform="translate(-156 -229.89)"/>
    <path d="M369.75,538.79H292.17a3.75,3.75,0,0,1,0-7.5h77.58a3.75,3.75,0,0,1,0,7.5Zm0,0" transform="translate(-156 -229.89)"/>
    <path d="M277.73,538.79H195.51a3.75,3.75,0,0,1,0-7.5h82.22a3.75,3.75,0,0,1,0,7.5Zm0,0" transform="translate(-156 -229.89)"/>
  </g>
  <text class="cls-7" transform="translate(98.26 193.06)">PDF</text>
</svg>
